<svg width="16" height="15" viewBox="0 0 16 15" fill="none" xmlns="http://www.w3.org/2000/svg">
<path d="M15.2061 6.28133C14.7221 5.27213 14 4.2846 14 3.16535V0.756226C14 0.342012 13.6642 0.00622559 13.25 0.00622559V0.00622559C12.8358 0.00622559 12.5 0.345639 12.5 0.759853V0.759853C12.5 1.17809 12.1609 1.5208 11.7427 1.5208H4.25729C3.83905 1.5208 3.5 1.17809 3.5 0.759853V0.759853C3.5 0.345639 3.16421 0.00622559 2.75 0.00622559V0.00622559C2.33579 0.00622559 2 0.342012 2 0.756226V3.16486C2 4.28435 1.27739 5.27202 0.793601 6.28158C0.605665 6.67376 0.5 7.11327 0.5 7.57912V10.6083C0.5 10.8091 0.579018 11.0017 0.71967 11.1438C0.860322 11.2858 1.05109 11.3656 1.25 11.3656V11.3656C1.66421 11.3656 2 11.7014 2 12.1156V13.6447C2 14.0589 2.33579 14.3947 2.75 14.3947V14.3947C3.16421 14.3947 3.5 14.0589 3.5 13.6447V12.8801C3.5 12.0437 4.1781 11.3656 5.01458 11.3656H10.9854C11.8219 11.3656 12.5 12.0437 12.5 12.8801V13.6447C12.5 14.0589 12.8358 14.3947 13.25 14.3947V14.3947C13.6642 14.3947 14 14.0589 14 13.6447V12.1156C14 11.7014 14.3358 11.3656 14.75 11.3656V11.3656C14.9489 11.3656 15.1397 11.2858 15.2803 11.1438C15.421 11.0017 15.5 10.8091 15.5 10.6083V7.57912C15.5 7.11317 15.3942 6.67358 15.2061 6.28133ZM11.7427 3.03538C12.1609 3.03538 12.5 3.37443 12.5 3.79267V3.79267C12.5 4.21091 12.1609 4.54996 11.7427 4.54996H9.50729C9.08905 4.54996 8.75 4.21091 8.75 3.79267V3.79267C8.75 3.37443 9.08905 3.03538 9.50729 3.03538H11.7427ZM3.5 3.79267C3.5 3.37443 3.83905 3.03538 4.25729 3.03538H6.49271C6.91095 3.03538 7.25 3.37443 7.25 3.79267V3.79267C7.25 4.21091 6.91095 4.54996 6.49271 4.54996H4.25729C3.83905 4.54996 3.5 4.21091 3.5 3.79267V3.79267ZM14 7.57912C14 8.83384 12.9828 9.85099 11.7281 9.85099H4.27187C3.01715 9.85099 2 8.83384 2 7.57912V7.57912C2 6.74383 2.67275 6.06454 3.5 6.06454H12.5C13.3273 6.06454 14 6.74383 14 7.57912V7.57912Z" fill="white"/>
</svg>
