<svg width="16" height="15" viewBox="0 0 16 15" fill="none" xmlns="http://www.w3.org/2000/svg">
<path d="M15.2487 5.98267C14.9394 5.51344 14.4779 5.11853 14.3018 4.58486L13.553 2.31675C13.4042 1.86426 13.1179 1.47063 12.7348 1.1918C12.3518 0.912975 11.8915 0.763127 11.4193 0.763551H4.58075C4.10854 0.763127 3.64821 0.912975 3.26516 1.1918C2.88212 1.47063 2.59584 1.86426 2.447 2.31675L1.69824 4.58485C1.52206 5.11853 1.0606 5.51344 0.7513 5.98267C0.58743 6.23127 0.5 6.52324 0.5 6.82187V10.6083C0.5 11.5843 1.25 12.5124 1.25 13.4884V13.6375C1.25 13.8383 1.32902 14.0309 1.46967 14.173C1.61032 14.315 1.80109 14.3948 2 14.3948H2.75C2.94891 14.3948 3.13968 14.315 3.28033 14.173C3.42098 14.0309 3.5 13.8383 3.5 13.6375C3.5 12.801 4.1781 12.1229 5.01458 12.1229H10.9854C11.8219 12.1229 12.5 12.801 12.5 13.6375C12.5 13.8383 12.579 14.0309 12.7197 14.173C12.8603 14.315 13.0511 14.3948 13.25 14.3948H14C14.1989 14.3948 14.3897 14.315 14.5303 14.173C14.671 14.0309 14.75 13.8383 14.75 13.6375V12.6993C14.75 12.2127 15.0559 11.7842 15.2983 11.3623C15.43 11.1332 15.4996 10.8732 15.5 10.6083V6.82187C15.5 6.52324 15.4126 6.23127 15.2487 5.98267ZM-nan -nanL4.58075 2.27813H11.4185C11.7418 2.27813 12.0282 2.48563 12.1302 2.79612C12.5388 4.03298 11.6177 5.30729 10.3151 5.30729H5.68464C4.38201 5.30729 3.46076 4.03312 3.869 2.79612C3.91876 2.64526 4.01429 2.51404 4.14204 2.42107C4.26979 2.3281 4.42328 2.27809 4.58075 2.27813L-nan -nanZM-nan -nanL3.125 9.85102C2.97721 9.85097 2.83088 9.82153 2.69437 9.76438C2.55785 9.70723 2.43382 9.62349 2.32935 9.51794C2.22488 9.41239 2.14203 9.28709 2.08552 9.14921C2.02901 9.01133 1.99995 8.86355 2 8.71433C2.00005 8.56511 2.02921 8.41736 2.08581 8.27951C2.14241 8.14167 2.22534 8.01643 2.32988 7.91095C2.43442 7.80547 2.5585 7.72181 2.69506 7.66475C2.83161 7.60769 2.97796 7.57835 3.12575 7.5784C3.42422 7.5785 3.71042 7.69831 3.9214 7.91148C4.13238 8.12466 4.25085 8.41372 4.25075 8.71509C4.25065 9.01646 4.13199 9.30544 3.92087 9.51847C3.70975 9.7315 3.42347 9.85112 3.125 9.85102L-nan -nanZM-nan -nanL12.875 9.85102C12.7272 9.85097 12.5809 9.82153 12.4444 9.76438C12.3078 9.70723 12.1838 9.62349 12.0793 9.51794C11.9749 9.41239 11.892 9.28709 11.8355 9.14921C11.779 9.01133 11.75 8.86355 11.75 8.71433C11.75 8.56511 11.7792 8.41736 11.8358 8.27951C11.8924 8.14167 11.9753 8.01643 12.0799 7.91095C12.1844 7.80547 12.3085 7.72181 12.4451 7.66475C12.5816 7.60769 12.728 7.57835 12.8757 7.5784C13.1742 7.5785 13.4604 7.69831 13.6714 7.91148C13.8824 8.12466 14.0008 8.41372 14.0007 8.71509C14.0007 9.01646 13.882 9.30544 13.6709 9.51847C13.4598 9.7315 13.1735 9.85112 12.875 9.85102L-nan -nanZ" fill="white"/>
</svg>
