<svg width="32" height="31" viewBox="0 0 32 31" fill="none" xmlns="http://www.w3.org/2000/svg">
<path d="M16.1939 15.8282C15.3634 15.8282 14.5515 16.0906 13.861 16.5822C13.1704 17.0738 12.6322 17.7726 12.3144 18.5902C11.9965 19.4077 11.9134 20.3074 12.0754 21.1753C12.2374 22.0432 12.6374 22.8404 13.2246 23.4662C13.8119 24.0919 14.5601 24.518 15.3747 24.6907C16.1893 24.8633 17.0336 24.7747 17.8009 24.436C18.5682 24.0974 19.224 23.5239 19.6854 22.7881C20.1468 22.0524 20.3931 21.1873 20.3931 20.3024C20.3931 19.1158 19.9507 17.9777 19.1632 17.1386C18.3757 16.2996 17.3076 15.8282 16.1939 15.8282ZM16.1939 21.7938C15.9171 21.7938 15.6465 21.7063 15.4163 21.5425C15.1861 21.3786 15.0067 21.1457 14.9007 20.8731C14.7948 20.6006 14.7671 20.3007 14.8211 20.0114C14.8751 19.7221 15.0084 19.4564 15.2042 19.2478C15.3999 19.0392 15.6493 18.8972 15.9208 18.8396C16.1924 18.7821 16.4738 18.8116 16.7296 18.9245C16.9853 19.0374 17.2039 19.2286 17.3577 19.4738C17.5116 19.7191 17.5936 20.0074 17.5936 20.3024C17.5936 20.6979 17.4462 21.0773 17.1837 21.357C16.9212 21.6367 16.5651 21.7938 16.1939 21.7938ZM15.2001 12.4128C15.3332 12.5486 15.4902 12.655 15.662 12.726C15.8296 12.8049 16.0107 12.8457 16.1939 12.8457C16.3771 12.8457 16.5583 12.8049 16.7258 12.726C16.8976 12.655 17.0546 12.5486 17.1877 12.4128L20.3931 9.05716C20.6641 8.76841 20.8164 8.37679 20.8164 7.96843C20.8164 7.56008 20.6641 7.16845 20.3931 6.8797C20.1221 6.59095 19.7546 6.42874 19.3713 6.42874C18.9881 6.42874 18.6205 6.59095 18.3495 6.8797L17.5936 7.75964V2.40547C17.5936 2.00993 17.4462 1.63058 17.1837 1.35089C16.9212 1.07119 16.5651 0.914063 16.1939 0.914062C15.8227 0.914063 15.4667 1.07119 15.2042 1.35089C14.9417 1.63058 14.7942 2.00993 14.7942 2.40547V7.75964L14.0383 6.8797C13.7673 6.59095 13.3998 6.42874 13.0165 6.42874C12.6333 6.42874 12.2657 6.59095 11.9947 6.8797C11.7237 7.16845 11.5715 7.56008 11.5715 7.96843C11.5715 8.37679 11.7237 8.76841 11.9947 9.05716L15.2001 12.4128ZM25.992 20.3024C25.992 20.0074 25.9099 19.7191 25.7561 19.4738C25.6023 19.2286 25.3837 19.0374 25.128 18.9245C24.8722 18.8116 24.5907 18.7821 24.3192 18.8396C24.0477 18.8972 23.7983 19.0392 23.6025 19.2478C23.4068 19.4564 23.2735 19.7221 23.2195 20.0114C23.1655 20.3007 23.1932 20.6006 23.2991 20.8731C23.4051 21.1457 23.5845 21.3786 23.8147 21.5425C24.0448 21.7063 24.3155 21.7938 24.5923 21.7938C24.9635 21.7938 25.3196 21.6367 25.5821 21.357C25.8446 21.0773 25.992 20.6979 25.992 20.3024ZM27.3918 9.86252H23.1926C22.8213 9.86252 22.4653 10.0197 22.2028 10.2993C21.9403 10.579 21.7928 10.9584 21.7928 11.3539C21.7928 11.7495 21.9403 12.1288 22.2028 12.4085C22.4653 12.6882 22.8213 12.8453 23.1926 12.8453H27.3918C27.763 12.8453 28.119 13.0025 28.3815 13.2822C28.644 13.5619 28.7915 13.9412 28.7915 14.3368V26.268C28.7915 26.6636 28.644 27.0429 28.3815 27.3226C28.119 27.6023 27.763 27.7594 27.3918 27.7594H4.99607C4.62484 27.7594 4.26881 27.6023 4.00631 27.3226C3.74381 27.0429 3.59634 26.6636 3.59634 26.268V14.3368C3.59634 13.9412 3.74381 13.5619 4.00631 13.2822C4.26881 13.0025 4.62484 12.8453 4.99607 12.8453H9.19526C9.56649 12.8453 9.92252 12.6882 10.185 12.4085C10.4475 12.1288 10.595 11.7495 10.595 11.3539C10.595 10.9584 10.4475 10.579 10.185 10.2993C9.92252 10.0197 9.56649 9.86252 9.19526 9.86252H4.99607C3.88237 9.86252 2.81429 10.3339 2.02679 11.173C1.23929 12.0121 0.796875 13.1501 0.796875 14.3368V26.268C0.796875 27.4547 1.23929 28.5927 2.02679 29.4318C2.81429 30.2709 3.88237 30.7423 4.99607 30.7423H27.3918C28.5055 30.7423 29.5735 30.2709 30.361 29.4318C31.1485 28.5927 31.591 27.4547 31.591 26.268V14.3368C31.591 13.1501 31.1485 12.0121 30.361 11.173C29.5735 10.3339 28.5055 9.86252 27.3918 9.86252ZM6.3958 20.3024C6.3958 20.5974 6.47789 20.8857 6.6317 21.131C6.7855 21.3762 7.00411 21.5674 7.25988 21.6803C7.51564 21.7932 7.79708 21.8227 8.0686 21.7652C8.34013 21.7076 8.58953 21.5656 8.78529 21.357C8.98104 21.1484 9.11436 20.8827 9.16837 20.5934C9.22237 20.3041 9.19466 20.0042 9.08871 19.7317C8.98277 19.4591 8.80336 19.2262 8.57318 19.0623C8.34299 18.8985 8.07237 18.811 7.79553 18.811C7.4243 18.811 7.06827 18.9681 6.80577 19.2478C6.54327 19.5275 6.3958 19.9068 6.3958 20.3024Z" fill="black"/>
</svg>
