<svg width="19" height="19" viewBox="0 0 19 19" fill="none" xmlns="http://www.w3.org/2000/svg">
<path d="M1 4.4C1 3.49826 1.35821 2.63346 1.99584 1.99584C2.63346 1.35821 3.49826 1 4.4 1H14.6C15.5017 1 16.3665 1.35821 17.0042 1.99584C17.6418 2.63346 18 3.49826 18 4.4V14.6C18 15.5017 17.6418 16.3665 17.0042 17.0042C16.3665 17.6418 15.5017 18 14.6 18H4.4C3.49826 18 2.63346 17.6418 1.99584 17.0042C1.35821 16.3665 1 15.5017 1 14.6V4.4Z" stroke="white" stroke-width="1.5" stroke-linecap="round" stroke-linejoin="round"/>
<path d="M6.52344 8.65002C7.69704 8.65002 8.64844 7.69863 8.64844 6.52502C8.64844 5.35142 7.69704 4.40002 6.52344 4.40002C5.34983 4.40002 4.39844 5.35142 4.39844 6.52502C4.39844 7.69863 5.34983 8.65002 6.52344 8.65002Z" stroke="white" stroke-width="1.5" stroke-linecap="round" stroke-linejoin="round"/>
<path d="M11.6455 10.0279L4.39844 18H14.7115C15.5832 18 16.4193 17.6537 17.0357 17.0373C17.6521 16.4209 17.9984 15.5848 17.9984 14.7131V14.6C17.9984 14.2039 17.8497 14.0518 17.5819 13.7585L14.1564 10.0228C13.9968 9.84863 13.8026 9.70967 13.5862 9.61476C13.3699 9.51985 13.1361 9.47108 12.8999 9.47156C12.6636 9.47204 12.43 9.52176 12.2141 9.61755C11.9981 9.71333 11.8045 9.85308 11.6455 10.0279V10.0279Z" stroke="white" stroke-width="1.5" stroke-linecap="round" stroke-linejoin="round"/>
</svg>
