<svg width="21" height="15" viewBox="0 0 21 15" fill="none" xmlns="http://www.w3.org/2000/svg">
<path d="M20.0703 13.2373H0.929688C0.822266 13.2373 0.734375 13.3252 0.734375 13.4326V14.7998C0.734375 14.9072 0.822266 14.9951 0.929688 14.9951H20.0703C20.1777 14.9951 20.2656 14.9072 20.2656 14.7998V13.4326C20.2656 13.3252 20.1777 13.2373 20.0703 13.2373ZM2.04541 10.1806L3.01465 11.145C3.09033 11.2207 3.21484 11.2207 3.29053 11.145L9.02051 5.43455L11.4033 7.81003C11.5501 7.95549 11.7484 8.03709 11.9551 8.03709C12.1617 8.03709 12.36 7.95549 12.5068 7.81003L18.957 1.38425C19.0327 1.30857 19.0327 1.18406 18.957 1.10837L17.9878 0.141577C17.9511 0.105229 17.9015 0.0848389 17.8499 0.0848389C17.7982 0.0848389 17.7486 0.105229 17.7119 0.141577L11.9575 5.87888L9.57227 3.50339C9.42546 3.35794 9.22717 3.27634 9.02051 3.27634C8.81385 3.27634 8.61555 3.35794 8.46875 3.50339L2.04541 9.90476C2.02715 9.92279 2.01265 9.94427 2.00275 9.96795C1.99286 9.99163 1.98776 10.017 1.98776 10.0427C1.98776 10.0684 1.99286 10.0938 2.00275 10.1175C2.01265 10.1411 2.02715 10.1626 2.04541 10.1806Z" fill="#A7AEB1"/>
</svg>
