<svg width="17" height="21" viewBox="0 0 17 21" fill="none" xmlns="http://www.w3.org/2000/svg">
<path d="M8.5 11.375C9.94975 11.375 11.125 10.1997 11.125 8.75C11.125 7.30025 9.94975 6.125 8.5 6.125C7.05025 6.125 5.875 7.30025 5.875 8.75C5.875 10.1997 7.05025 11.375 8.5 11.375Z" stroke="#636363" stroke-width="1.75" stroke-linecap="round" stroke-linejoin="round"/>
<path d="M8.5 1.75C6.64348 1.75 4.86301 2.4875 3.55025 3.80025C2.2375 5.11301 1.5 6.89348 1.5 8.75C1.5 10.4055 1.85175 11.4887 2.8125 12.6875L8.5 19.25L14.1875 12.6875C15.1483 11.4887 15.5 10.4055 15.5 8.75C15.5 6.89348 14.7625 5.11301 13.4497 3.80025C12.137 2.4875 10.3565 1.75 8.5 1.75V1.75Z" stroke="#636363" stroke-width="1.75" stroke-linecap="round" stroke-linejoin="round"/>
</svg>
