<svg width="30" height="30" viewBox="0 0 30 30" fill="none" xmlns="http://www.w3.org/2000/svg">
<path d="M16.5 15.25C16.5 16.2165 15.7165 17 14.75 17C13.7835 17 13 16.2165 13 15.25C13 14.2835 13.7835 13.5 14.75 13.5C15.7165 13.5 16.5 14.2835 16.5 15.25Z" fill="black"/>
<path d="M16.5 8.75C16.5 9.71649 15.7165 10.5 14.75 10.5C13.7835 10.5 13 9.71649 13 8.75C13 7.78351 13.7835 7 14.75 7C15.7165 7 16.5 7.78351 16.5 8.75Z" fill="black"/>
<path d="M16.5 21.75C16.5 22.7165 15.7165 23.5 14.75 23.5C13.7835 23.5 13 22.7165 13 21.75C13 20.7835 13.7835 20 14.75 20C15.7165 20 16.5 20.7835 16.5 21.75Z" fill="black"/>
</svg>
