<svg width="18" height="16" viewBox="0 0 18 16" fill="none" xmlns="http://www.w3.org/2000/svg">
<path d="M0.371307 8.13677C0.20073 8.23626 0.076271 8.40007 0.0253006 8.5922C-0.0256699 8.78433 0.00102229 8.98903 0.0995069 9.16129L3.40071 14.9351C3.44949 15.0204 3.51444 15.0952 3.59185 15.1551C3.66925 15.2151 3.75759 15.2591 3.85183 15.2846C3.94607 15.3101 4.04436 15.3165 4.14108 15.3037C4.2378 15.2908 4.33107 15.2588 4.41555 15.2096L17.6286 7.50701C17.7131 7.45775 17.7872 7.39217 17.8465 7.31401C17.9059 7.23586 17.9495 7.14665 17.9747 7.0515C18 6.95635 18.0064 6.8571 17.9936 6.75944C17.9809 6.66178 17.9492 6.56761 17.9004 6.48231L14.5992 0.708489C14.5504 0.623183 14.4855 0.548415 14.4081 0.488455C14.3307 0.428495 14.2423 0.384517 14.1481 0.359032C14.0539 0.333548 13.9556 0.327055 13.8589 0.339927C13.7621 0.352798 13.6689 0.38478 13.5844 0.434047L0.371307 8.13677ZM3.02603 11.2794C2.32372 10.0511 2.74301 8.48627 3.96537 7.77368L11.4387 3.41702C12.6756 2.69593 14.2632 3.12132 14.9739 4.36427L15.9976 6.15462C16.1332 6.39169 16.0522 6.6937 15.8163 6.83123C15.5776 6.97043 15.2711 6.88831 15.134 6.64838L14.6105 5.73257C14.5078 5.55296 14.2784 5.49149 14.0997 5.59571C13.9231 5.69866 13.8625 5.9247 13.964 6.10214L14.4595 6.96878C14.6146 7.24011 14.522 7.58576 14.252 7.7432C13.9787 7.90255 13.6279 7.80858 13.4709 7.53396L12.9833 6.68108C12.8806 6.50148 12.6512 6.44003 12.4725 6.54424C12.2959 6.6472 12.2354 6.87326 12.3368 7.0507L12.8327 7.91785C12.9877 8.18888 12.8951 8.53417 12.6254 8.69142C12.3525 8.85055 12.0022 8.75669 11.8453 8.48241L11.3573 7.6289C11.2547 7.44931 11.0253 7.38786 10.8466 7.49206C10.67 7.59503 10.6094 7.82109 10.7109 7.99853L11.2064 8.86514C11.3616 9.13647 11.269 9.48215 10.999 9.6396C10.7257 9.79893 10.375 9.70498 10.2179 9.43039L9.35659 7.92411C9.25392 7.74458 9.02461 7.68313 8.84593 7.78727C8.66933 7.8902 8.60875 8.11628 8.71022 8.29373L9.57935 9.8136C9.73453 10.085 9.64191 10.4307 9.37184 10.5882C9.09855 10.7475 8.74777 10.6535 8.59075 10.3789L8.10311 9.526C8.00043 9.34641 7.77104 9.28496 7.59233 9.38916C7.41576 9.49213 7.35521 9.71819 7.45667 9.89563L7.95251 10.7628C8.10749 11.0338 8.01495 11.3791 7.74521 11.5363C7.47229 11.6954 7.12203 11.6015 6.96524 11.3272L6.47735 10.4738C6.37467 10.2942 6.14527 10.2328 5.96655 10.337C5.78999 10.44 5.72943 10.666 5.83087 10.8434L6.32631 11.71C6.48144 11.9814 6.3888 12.327 6.11877 12.4845C5.84553 12.6437 5.49484 12.5498 5.33784 12.2752L4.85017 11.4224C4.74748 11.2428 4.51809 11.1813 4.33938 11.2855C4.1628 11.3885 4.10225 11.6146 4.20371 11.792L4.79047 12.8181C4.89511 13.0011 4.83264 13.2343 4.65052 13.3405C4.46623 13.4479 4.2297 13.3845 4.12382 13.1993L3.02603 11.2794Z" fill="white"/>
</svg>
