<svg width="21" height="23" viewBox="0 0 21 23" fill="none" xmlns="http://www.w3.org/2000/svg">
<path d="M10.5013 22.9583L0.605469 17.2291V5.77079L10.5013 0.041626L20.3971 5.77079V17.2291L10.5013 22.9583ZM10.5013 2.44996L2.6888 6.97183V16.0281L10.5013 20.551L18.3138 16.0281V6.97183L10.5013 2.44892V2.44996ZM10.5013 15.6666C9.53731 15.6668 8.60307 15.3328 7.85777 14.7214C7.11247 14.11 6.60222 13.2591 6.41397 12.3136C6.22572 11.3682 6.37111 10.3868 6.82537 9.5365C7.27963 8.68625 8.01465 8.01982 8.9052 7.65075C9.79574 7.28169 10.7867 7.23283 11.7092 7.5125C12.6318 7.79217 13.4288 8.38307 13.9645 9.18451C14.5002 9.98595 14.7414 10.9483 14.6471 11.9077C14.5527 12.8671 14.1287 13.764 13.4471 14.4458C12.6642 15.2246 11.6057 15.6633 10.5013 15.6666ZM10.5013 9.41663C10.2277 9.41656 9.95679 9.47038 9.70401 9.57501C9.45122 9.67965 9.22151 9.83305 9.02801 10.0265C8.83451 10.2199 8.68099 10.4495 8.57623 10.7022C8.47147 10.955 8.41752 11.2259 8.41745 11.4994C8.41738 11.773 8.4712 12.0439 8.57583 12.2967C8.68047 12.5495 8.83387 12.7792 9.02727 12.9727C9.22068 13.1662 9.45031 13.3197 9.70304 13.4245C9.95578 13.5293 10.2267 13.5832 10.5003 13.5833C11.0528 13.5834 11.5828 13.3641 11.9736 12.9735C12.3643 12.5829 12.584 12.053 12.5841 11.5005C12.5843 10.9479 12.3649 10.418 11.9743 10.0272C11.5837 9.63639 11.0538 9.41676 10.5013 9.41663Z" fill="#A7AEB1"/>
</svg>
