<svg width="21" height="21" viewBox="0 0 21 21" fill="none" xmlns="http://www.w3.org/2000/svg">
<path d="M15.4219 13.6172C14.8374 13.6172 14.298 13.8223 13.8756 14.1647L9.62637 11.0906C9.69752 10.7001 9.69752 10.2999 9.62637 9.90938L13.8756 6.83525C14.298 7.17773 14.8374 7.38281 15.4219 7.38281C16.7795 7.38281 17.8828 6.27949 17.8828 4.92188C17.8828 3.56426 16.7795 2.46094 15.4219 2.46094C14.0643 2.46094 12.9609 3.56426 12.9609 4.92188C12.9609 5.15977 12.9938 5.3874 13.0573 5.60478L9.02139 8.52715C8.42256 7.7335 7.471 7.21875 6.39844 7.21875C4.58555 7.21875 3.11719 8.68711 3.11719 10.5C3.11719 12.3129 4.58555 13.7812 6.39844 13.7812C7.471 13.7812 8.42256 13.2665 9.02139 12.4729L13.0573 15.3952C12.9938 15.6126 12.9609 15.8423 12.9609 16.0781C12.9609 17.4357 14.0643 18.5391 15.4219 18.5391C16.7795 18.5391 17.8828 17.4357 17.8828 16.0781C17.8828 14.7205 16.7795 13.6172 15.4219 13.6172ZM15.4219 3.85547C16.0104 3.85547 16.4883 4.3333 16.4883 4.92188C16.4883 5.51045 16.0104 5.98828 15.4219 5.98828C14.8333 5.98828 14.3555 5.51045 14.3555 4.92188C14.3555 4.3333 14.8333 3.85547 15.4219 3.85547ZM6.39844 12.3047C5.40381 12.3047 4.59375 11.4946 4.59375 10.5C4.59375 9.50537 5.40381 8.69531 6.39844 8.69531C7.39307 8.69531 8.20312 9.50537 8.20312 10.5C8.20312 11.4946 7.39307 12.3047 6.39844 12.3047ZM15.4219 17.1445C14.8333 17.1445 14.3555 16.6667 14.3555 16.0781C14.3555 15.4896 14.8333 15.0117 15.4219 15.0117C16.0104 15.0117 16.4883 15.4896 16.4883 16.0781C16.4883 16.6667 16.0104 17.1445 15.4219 17.1445Z" fill="black"/>
</svg>
