<svg width="17" height="13" viewBox="0 0 17 13" fill="none" xmlns="http://www.w3.org/2000/svg">
<path d="M-nan -nanL8.46566 8.16448L7.9765 8.6584C7.76751 8.86942 7.71567 9.1899 7.84746 9.45604L8.1035 9.9731C8.27797 10.3254 8.7505 10.3953 9.01952 10.1086V10.1086C9.18045 9.93711 9.21794 9.68369 9.11357 9.47293L8.46566 8.16448L-nan -nanL-nan -nanZM-nan -nanL8.99923 11.7819L9.4228 12.6374C9.59728 12.9897 10.0698 13.0596 10.3389 12.7729V12.7729C10.4998 12.6014 10.5373 12.3479 10.4329 12.1372L10.1377 11.541C9.98507 11.2328 9.57178 11.1717 9.33649 11.4225L8.99923 11.7819L-nan -nanL-nan -nanZM-nan -nanL15.431 4.92686L15.0867 5.29385C14.8543 5.54156 14.929 5.94362 15.2348 6.09133L15.8047 6.36651C16.0278 6.47428 16.2951 6.42462 16.4647 6.2439V6.2439C16.7265 5.96482 16.6424 5.51183 16.2978 5.34542L15.431 4.92686L-nan -nanL-nan -nanZM12.6034 3.98654C12.3296 4.263 12.4093 4.72682 12.7597 4.89602L13.1764 5.09729C13.3996 5.20505 13.6669 5.1554 13.8364 4.97468V4.97468C14.0983 4.69562 14.0141 4.24264 13.6695 4.07622L13.2528 3.87495C13.0347 3.76964 12.7738 3.81447 12.6034 3.98654V3.98654ZM11.1434 9.49665C10.9565 9.69581 10.939 10.0002 11.1019 10.2194L11.4207 10.6486C11.6304 10.931 12.0447 10.9548 12.2854 10.6983V10.6983C12.4723 10.4991 12.4897 10.1947 12.3269 9.97549L12.0081 9.5463C11.7983 9.26387 11.3841 9.24009 11.1434 9.49665V9.49665ZM-nan -nanL10.9207 8.08234L10.2952 7.24024C10.0891 6.96276 9.68427 6.93403 9.44104 7.17962V7.17962C9.24481 7.37776 9.22269 7.68951 9.38897 7.91338L9.76326 8.41727C9.95736 8.67858 10.3406 8.70058 10.5634 8.46319L10.9207 8.08234L-nan -nanL-nan -nanZM11.0136 5.59179C10.7778 5.82987 10.7994 6.21955 11.0601 6.43011L11.4539 6.74827C11.6844 6.93443 12.0194 6.91131 12.2221 6.69526V6.69526C12.4472 6.45533 12.421 6.07468 12.165 5.86795L11.7712 5.54979C11.5453 5.36732 11.2179 5.38547 11.0136 5.59179V5.59179ZM-nan -nanL12.7442 7.79051L13.6264 8.50319C13.8569 8.68935 14.1919 8.66623 14.3946 8.45017V8.45017C14.6197 8.21025 14.5935 7.82959 14.3375 7.62286L13.9456 7.30629C13.706 7.11271 13.3576 7.13675 13.1468 7.36141L12.7442 7.79051L-nan -nanL-nan -nanZM12.6135 1.66685C12.418 1.46947 12.099 1.46947 11.9036 1.66685L11.7973 1.77416C11.5433 2.03064 11.1288 2.03063 10.8748 1.77415L10.467 1.36244C10.1027 0.994542 9.67013 0.702711 9.19408 0.503608C8.71803 0.304504 8.2078 0.202026 7.69252 0.202026C7.17725 0.202026 6.66702 0.304504 6.19097 0.503608C5.71491 0.702711 5.28236 0.994542 4.91801 1.36244V1.36244C4.89733 1.38325 4.86489 1.3865 4.84066 1.36994C4.43941 1.09562 3.97301 0.93342 3.48893 0.90033C2.98791 0.866083 2.4872 0.971453 2.04145 1.20494C1.5957 1.43843 1.22203 1.79106 0.96122 2.22435C0.700412 2.65765 0.562488 3.15495 0.5625 3.66199V11.6549C0.5625 11.9656 0.81434 12.2174 1.125 12.2174V12.2174C1.43566 12.2174 1.6875 11.9656 1.6875 11.6549V3.66199C1.68749 3.36452 1.76801 3.0727 1.92034 2.81808C2.07268 2.56346 2.29104 2.35572 2.55183 2.21732C2.81261 2.07892 3.1059 2.01513 3.39999 2.03283V2.03283C3.90198 2.06304 4.03257 2.6502 3.90373 3.13631C3.76451 3.6616 3.73286 4.21329 3.81448 4.75711C3.93996 5.59312 4.32658 6.36683 4.91801 6.96547L5.36649 7.41831C5.59937 7.65345 5.59937 8.0323 5.3665 8.26744L5.29418 8.34047C5.10136 8.53517 5.10136 8.84886 5.29419 9.04356V9.04356C5.48967 9.24095 5.80863 9.24095 6.00412 9.04356L12.6135 2.36995C12.8063 2.17525 12.8063 1.86156 12.6135 1.66685V1.66685ZM7.29474 6.16225C6.85933 6.60189 6.1489 6.6019 5.71349 6.16226V6.16226C5.19371 5.63122 4.90317 4.91407 4.90534 4.16745C4.90751 3.42083 5.2022 2.70542 5.72505 2.17746C6.2479 1.64951 6.95642 1.35193 7.69585 1.34972C8.43529 1.3475 9.14554 1.64084 9.67149 2.16565V2.16565C10.1094 2.60781 10.1094 3.32018 9.67148 3.76234L7.29474 6.16225Z" fill="white"/>
</svg>
